<?xml version="1.0" standalone="no"?>
<!DOCTYPE svg PUBLIC "-//W3C//DTD SVG 20010904//EN"
 "http://www.w3.org/TR/2001/REC-SVG-20010904/DTD/svg10.dtd">
<svg version="1.0" xmlns="http://www.w3.org/2000/svg"
 width="1116.000000pt" height="1116.000000pt" viewBox="0 0 1116.000000 1116.000000"
 preserveAspectRatio="xMidYMid meet">
<metadata>
Created by potrace 1.14, written by Peter Selinger 2001-2017
</metadata>
<g transform="translate(0.000000,1116.000000) scale(0.100000,-0.100000)"
fill="#000000" stroke="none">
<path d="M3603 7220 c-91 -21 -163 -122 -163 -227 0 -101 67 -179 189 -219 57
-18 121 -66 121 -90 0 -20 18 -17 24 4 11 32 52 63 115 86 127 46 190 117 191
215 0 71 -20 122 -70 171 -79 80 -160 84 -220 12 l-30 -37 -27 34 c-21 27 -82
65 -95 60 -2 -1 -18 -5 -35 -9z"/>
<path d="M3475 6604 c-18 -14 -20 -30 -25 -214 l-5 -198 -35 17 c-39 19 -259
134 -543 283 -103 54 -199 98 -214 98 -22 0 -160 -67 -418 -205 -33 -18 -141
-74 -240 -125 -99 -51 -193 -100 -210 -110 -16 -10 -97 -52 -180 -95 -186 -96
-336 -175 -440 -230 -44 -23 -147 -77 -230 -120 -82 -43 -181 -94 -220 -115
-38 -21 -124 -66 -190 -100 -507 -263 -509 -264 -518 -292 -12 -31 7 -76 36
-87 13 -5 204 -9 423 -9 219 -1 411 -1 425 -1 l26 -1 1 -537 c0 -296 1 -550 1
-566 1 -15 10 -36 21 -47 20 -20 33 -20 2883 -20 l2863 0 22 20 c28 26 29 73
2 100 -20 20 -33 20 -2835 20 -2674 0 -2815 1 -2816 18 0 9 -1 263 -2 564 l-2
547 -22 22 c-22 22 -26 22 -343 22 -176 0 -317 4 -313 8 4 4 71 39 148 79 77
40 172 89 210 110 39 21 124 66 190 100 174 91 336 175 450 235 55 29 192 101
305 160 113 59 250 131 305 160 55 29 219 115 365 191 145 76 274 143 287 147
17 6 45 -4 125 -46 57 -30 162 -85 233 -122 72 -37 184 -96 250 -130 297 -156
289 -153 324 -109 20 25 21 39 21 240 l0 214 155 0 155 0 0 -334 c0 -386 -9
-352 110 -414 41 -21 137 -71 212 -111 81 -42 149 -71 167 -71 53 0 86 73 51
115 -5 5 -97 55 -204 110 l-196 100 -1 325 c-1 179 -1 329 0 334 5 26 -13 65
-35 75 -17 7 -107 11 -267 11 -200 -1 -245 -3 -262 -16z"/>
<path d="M7590 5270 c5 -88 5 -589 0 -764 -2 -84 0 -101 13 -105 13 -5 111 -6
162 -2 6 1 10 77 10 208 0 179 2 213 18 245 10 21 26 42 37 48 30 16 75 12
103 -10 44 -34 50 -74 46 -293 l-4 -201 90 0 90 1 1 229 c0 126 -3 245 -8 264
-24 91 -88 135 -192 134 -69 -1 -124 -28 -166 -81 l-22 -28 5 220 5 220 -97 0
-96 0 5 -85z"/>
<path d="M6872 5334 c-25 -17 -49 -61 -47 -84 1 -8 3 -22 3 -31 1 -9 14 -28
28 -43 20 -20 37 -26 68 -26 50 0 79 18 96 60 37 88 -71 178 -148 124z"/>
<path d="M1570 5265 c-1 0 -1 -195 -1 -434 l-1 -434 78 0 c44 1 89 1 101 2
l22 1 -4 200 c-2 110 -2 200 0 200 4 0 188 -321 214 -372 7 -16 16 -28 20 -29
15 -2 231 -4 231 -2 0 1 -42 66 -93 145 -116 178 -167 263 -167 276 0 5 10 12
23 16 49 12 116 67 138 113 26 54 32 134 13 189 -18 53 -82 109 -142 123 -29
7 -122 11 -239 9 -106 -1 -193 -2 -193 -3z m314 -83 c49 -13 69 -52 73 -134 4
-124 -44 -188 -145 -191 l-47 -2 -1 160 c0 88 2 165 4 171 3 12 64 10 116 -4z"/>
<path d="M5530 5259 c0 -5 13 -50 29 -101 52 -165 208 -699 215 -735 1 -7 5
-16 9 -19 7 -7 127 -9 132 -2 1 2 21 59 44 128 42 123 108 308 152 424 l22 59
49 -139 c27 -76 71 -213 99 -304 28 -90 52 -166 54 -168 3 -4 66 -5 117 -3 11
1 21 15 28 42 6 22 36 115 66 207 30 92 57 174 59 182 2 8 35 107 74 220 39
113 71 208 71 211 0 4 -25 7 -55 7 -55 0 -55 -1 -65 -37 -5 -20 -30 -106 -55
-191 -58 -194 -75 -251 -80 -270 -2 -8 -12 -42 -22 -75 l-19 -60 -92 280 c-50
154 -95 296 -100 315 l-8 35 -67 1 -66 2 -27 -82 c-15 -44 -63 -186 -107 -315
-66 -191 -82 -230 -89 -211 -8 21 -96 345 -103 380 -2 8 -15 63 -30 121 l-27
107 -104 0 c-57 -1 -104 -4 -104 -9z"/>
<path d="M8685 5186 c5 -74 6 -591 2 -730 l-2 -59 228 -1 c125 -1 235 1 243 4
11 4 16 21 18 57 l1 50 -32 -4 c-17 -3 -83 -5 -145 -6 l-113 -2 1 386 1 386
-103 0 -103 1 4 -82z"/>
<path d="M7294 5192 l-82 -37 4 -78 3 -78 -32 1 c-54 3 -57 1 -57 -33 0 -32 1
-33 43 -33 l42 1 0 -225 c0 -193 2 -229 17 -256 35 -64 113 -86 218 -64 56 12
60 14 60 41 0 28 -2 29 -37 23 -48 -7 -71 10 -82 58 -11 45 -8 405 3 415 4 5
29 8 54 8 47 0 47 0 47 35 l0 35 -54 -3 -54 -2 7 115 c6 92 5 115 -6 114 -7 0
-50 -17 -94 -37z"/>
<path d="M2497 5014 c-140 -36 -224 -156 -225 -324 -1 -134 57 -235 161 -281
73 -32 201 -36 275 -7 114 43 184 156 185 298 0 85 -4 109 -27 165 -52 124
-213 189 -369 149z m143 -64 c53 -28 77 -169 58 -335 -10 -78 -40 -150 -70
-166 -59 -31 -124 5 -148 84 -16 51 -21 217 -9 284 23 123 89 176 169 133z"/>
<path d="M3213 5015 c-145 -33 -231 -156 -231 -330 0 -128 52 -221 152 -272
45 -24 63 -27 151 -27 119 -1 171 18 235 85 56 59 83 134 83 234 0 98 -21 167
-69 224 -71 82 -192 115 -321 86z m135 -64 c54 -29 79 -170 60 -333 -16 -134
-68 -197 -145 -176 -25 7 -37 20 -60 65 -25 52 -28 68 -28 168 0 120 7 170 31
220 31 67 84 87 142 56z"/>
<path d="M4023 5020 c-40 -9 -78 -34 -114 -73 l-27 -29 4 44 4 44 -96 0 -96 0
7 -31 c7 -36 7 -508 0 -547 -6 -31 -10 -30 85 -30 117 0 106 -11 100 99 -8
149 -3 298 10 337 33 100 153 101 176 2 9 -37 11 -261 4 -358 -3 -38 -3 -72 0
-76 4 -6 113 -8 171 -3 11 1 14 11 12 44 -8 128 -4 368 6 400 31 94 153 87
178 -11 10 -38 9 -351 -1 -405 -5 -30 -12 -29 108 -30 l79 0 0 239 c0 218 -2
244 -20 284 -25 56 -49 78 -105 94 -85 26 -166 5 -232 -61 -20 -20 -37 -34
-39 -32 -2 2 -14 19 -26 37 -38 55 -112 79 -188 62z"/>
<path d="M4905 5020 c-78 -19 -126 -56 -152 -119 -17 -40 -19 -114 -4 -154 17
-44 76 -93 149 -123 117 -49 148 -81 122 -130 -37 -69 -187 -44 -220 37 -12
28 -36 34 -45 11 -3 -9 -8 -39 -11 -67 l-6 -51 44 -18 c58 -24 155 -31 216
-16 64 15 125 66 146 123 17 45 16 130 -2 164 -20 36 -79 81 -139 103 -122 45
-155 77 -138 130 8 26 60 50 98 46 39 -5 76 -32 94 -71 24 -49 48 -46 62 9 6
24 13 50 17 59 14 38 -151 86 -231 67z"/>
<path d="M9478 5015 c-150 -40 -240 -183 -225 -360 9 -114 60 -195 152 -243
44 -23 63 -26 150 -26 111 -1 167 17 222 71 90 87 122 249 78 384 -46 139
-215 216 -377 174z m141 -65 c72 -38 90 -320 29 -448 -51 -106 -159 -80 -191
48 -18 68 -15 247 4 309 7 24 27 59 44 77 25 27 37 32 63 29 17 -2 40 -9 51
-15z"/>
<path d="M10767 5014 c-81 -21 -135 -68 -176 -154 -23 -49 -26 -67 -25 -160 0
-83 5 -115 21 -150 29 -65 68 -107 127 -137 45 -24 63 -27 156 -27 129 -1 188
21 209 79 7 19 10 39 7 44 -3 4 -31 -5 -62 -20 -136 -69 -250 -1 -270 161 l-6
50 186 0 186 0 -5 70 c-11 161 -91 247 -236 254 -35 1 -86 -3 -112 -10z m123
-59 c20 -12 39 -63 48 -128 l9 -67 -99 0 -99 0 6 48 c18 127 71 186 135 147z"/>
<path d="M6835 4703 c0 -167 3 -303 8 -304 9 -1 155 -1 165 0 4 1 7 137 7 304
l0 303 -90 0 -90 0 0 -303z"/>
<path d="M9920 5004 c0 -1 36 -103 81 -226 44 -123 93 -258 107 -300 l26 -78
63 0 c35 0 66 -1 71 -2 4 -2 18 29 31 67 33 97 125 330 160 406 16 35 36 80
44 100 l15 36 -56 -1 -55 -1 -73 -215 c-40 -118 -74 -217 -74 -220 -1 -6 -92
267 -121 366 l-21 70 -99 0 c-54 0 -99 -1 -99 -2z"/>
</g>
</svg>
